<svg xmlns="http://www.w3.org/2000/svg" width="180.579" height="38.138" viewBox="0 0 180.579 38.138">
  <g transform="translate(38.205 -473.17)">
    <g transform="translate(-38.205 473.17)">
      <path d="M22.708,526.795a1.824,1.824,0,0,0,.96-.208l-.376,4.55q-.5.125-1.335.251a10.59,10.59,0,0,1-1.544.125q-3.3,0-4.551-2.213a9.438,9.438,0,0,1-2.9,1.732,9.7,9.7,0,0,1-3.444.606,9.075,9.075,0,0,1-3.736-.772,9.472,9.472,0,0,1-3.027-2.129,9.811,9.811,0,0,1-2.024-3.194,11.349,11.349,0,0,1,0-8.014,9.82,9.82,0,0,1,2.024-3.194,9.186,9.186,0,0,1,3.027-2.108,9.283,9.283,0,0,1,3.736-.752,9.212,9.212,0,0,1,6.262,2.254l.293-1.794h5.134v13.274a1.6,1.6,0,0,0,.4,1.21,1.542,1.542,0,0,0,1.106.376m-11.938-.626a4.311,4.311,0,0,0,3.214-1.273,5.133,5.133,0,0,0,0-6.72A4.311,4.311,0,0,0,10.77,516.9a4.312,4.312,0,0,0-3.215,1.273,5.135,5.135,0,0,0,0,6.72,4.312,4.312,0,0,0,3.215,1.273" transform="translate(46.249 -500.303)" fill="#ffffff"></path>
      <path d="M48.478,511.475a9.59,9.59,0,0,1,3.778.752,9.31,9.31,0,0,1,3.089,2.108,9.938,9.938,0,0,1,2.066,3.194,11.055,11.055,0,0,1,0,8.014,9.929,9.929,0,0,1-2.066,3.194,9.6,9.6,0,0,1-3.089,2.129,9.374,9.374,0,0,1-3.778.772,8.964,8.964,0,0,1-5.552-1.795v8.6H36.874V517.778l-.418-5.677,5.593-.5.167,2.212a9.014,9.014,0,0,1,6.262-2.337m-1.043,14.694a4.227,4.227,0,0,0,3.235-1.315,5.089,5.089,0,0,0,0-6.638,4.663,4.663,0,0,0-6.513.022,5.032,5.032,0,0,0,0,6.6,4.241,4.241,0,0,0,3.277,1.336" transform="translate(36.927 -500.303)" fill="#ffffff"></path>
      <path d="M73.7,506.107a3.467,3.467,0,0,1-2.525-1,3.553,3.553,0,0,1-1.064-2.546,3.267,3.267,0,0,1,1.023-2.588,3.61,3.61,0,0,1,2.567-1,3.541,3.541,0,0,1,2.547,1,3.381,3.381,0,0,1,1.044,2.547,3.267,3.267,0,0,1-1.023,2.587,3.609,3.609,0,0,1-2.567,1m4.3,17.49a2.927,2.927,0,0,0,.648-.063,1.992,1.992,0,0,0,.438-.146l-.375,4.55q-.46.125-1.19.251a12.087,12.087,0,0,1-1.941.125,4.869,4.869,0,0,1-3.694-1.294,5.057,5.057,0,0,1-1.232-3.632v-8.766l-.375-5.761,6.428-.417v13.691a1.519,1.519,0,0,0,.355,1.085,1.229,1.229,0,0,0,.939.376" transform="translate(28.323 -497.104)" fill="#ffffff"></path>
      <path d="M107.957,524.142a2.22,2.22,0,0,0,1-.208l-.376,4.55q-.5.125-1.336.251a10.829,10.829,0,0,1-1.585.125q-3.382,0-4.592-2.3a8.414,8.414,0,0,1-2.818,1.8,9.53,9.53,0,0,1-3.486.626,9.065,9.065,0,0,1-3.652-.752,9.767,9.767,0,0,1-3.047-2.065A9.506,9.506,0,0,1,86,523.035a10.208,10.208,0,0,1-.752-3.944A11.259,11.259,0,0,1,86,514.875a10.186,10.186,0,0,1,2.024-3.235,8.726,8.726,0,0,1,3.005-2.088,9.529,9.529,0,0,1,3.736-.73,9.275,9.275,0,0,1,5.636,1.712v-9.143l6.053-.292v21.456a1.6,1.6,0,0,0,.4,1.21,1.541,1.541,0,0,0,1.106.376m-11.938-.626a4.311,4.311,0,0,0,3.214-1.273,5.133,5.133,0,0,0,0-6.72,4.666,4.666,0,0,0-6.428.02,4.605,4.605,0,0,0-1.252,3.34,4.486,4.486,0,0,0,1.294,3.381,4.391,4.391,0,0,0,3.173,1.253" transform="translate(24.45 -497.649)" fill="#ffffff"></path>
      <path d="M142.9,526.795a1.824,1.824,0,0,0,.96-.208l-.376,4.55q-.5.125-1.335.251a10.59,10.59,0,0,1-1.544.125q-3.3,0-4.551-2.213a9.438,9.438,0,0,1-2.9,1.732,9.7,9.7,0,0,1-3.444.606,9.075,9.075,0,0,1-3.736-.772,9.473,9.473,0,0,1-3.027-2.129,9.811,9.811,0,0,1-2.024-3.194,11.349,11.349,0,0,1,0-8.014,9.82,9.82,0,0,1,2.024-3.194,9.186,9.186,0,0,1,3.027-2.108,9.766,9.766,0,0,1,10,1.5l.293-1.794H141.4v13.274a1.6,1.6,0,0,0,.4,1.21,1.542,1.542,0,0,0,1.106.376m-11.938-.626a4.311,4.311,0,0,0,3.214-1.273,5.133,5.133,0,0,0,0-6.72,4.693,4.693,0,0,0-6.428,0,5.135,5.135,0,0,0,0,6.72,4.312,4.312,0,0,0,3.215,1.273" transform="translate(15.515 -500.303)" fill="#ffffff"></path>
      <path d="M161.168,522.537a4.352,4.352,0,0,0,1.733,2.88,7.047,7.047,0,0,0,4.278,1.085,10.316,10.316,0,0,0,3.82-.584,10.8,10.8,0,0,0,2.484-1.377l-.459,5.385a10.053,10.053,0,0,1-2.651,1.148,15.668,15.668,0,0,1-4.571.563,13.738,13.738,0,0,1-4.4-.668,9.733,9.733,0,0,1-3.381-1.9,8.367,8.367,0,0,1-2.17-3.026,10.14,10.14,0,0,1-.773-4.048,10.737,10.737,0,0,1,.814-4.2,9.829,9.829,0,0,1,2.275-3.34,10.6,10.6,0,0,1,3.465-2.192,11.814,11.814,0,0,1,4.383-.793,11.249,11.249,0,0,1,3.549.5,7.006,7.006,0,0,1,2.484,1.377,5.61,5.61,0,0,1,1.461,2.025,6.278,6.278,0,0,1,.48,2.442,5.694,5.694,0,0,1-2.088,4.717,8.7,8.7,0,0,1-5.593,1.669,9.9,9.9,0,0,1-3.089-.438,4.594,4.594,0,0,1-2.046-1.231m4.8-6.136a4.759,4.759,0,0,0-4.717,4.049,14.323,14.323,0,0,0,5.259-.563q1.586-.646,1.586-1.857a1.4,1.4,0,0,0-.563-1.232,2.689,2.689,0,0,0-1.566-.4" transform="translate(6.595 -500.303)" fill="#ffffff"></path>
      <path d="M94.391,35.081c-2.1.954-6.417-.714-10.317-4.136a26.171,26.171,0,0,0,4.643-6.817,21.2,21.2,0,0,0,1.568-13.181,35.728,35.728,0,0,1,3.657,6.262A29.163,29.163,0,0,1,96.8,29.142c-.028,3.076-.9,5.251-2.414,5.939m-24.507.008c-3.022-1.379-3.577-9.068.456-17.9A33.9,33.9,0,0,1,74,10.928a20.987,20.987,0,0,0,1.562,13.18,26.215,26.215,0,0,0,4.613,6.868c-3.9,3.4-8.2,5.041-10.291,4.114M82.143,4.853a5.321,5.321,0,0,1,1.778.452c1.591.954,3,3.263,3.634,6.044a15.281,15.281,0,0,1,.4,4.136l-11.621,0a17.809,17.809,0,0,1,.4-4.137c.636-2.784,2.043-5.092,3.637-6.045a4.894,4.894,0,0,1,1.774-.454m4.213,17.768-8.433,0a18.687,18.687,0,0,1-1.14-3.5l10.714,0a18.684,18.684,0,0,1-1.142,3.5m-4.218,6.419a25.082,25.082,0,0,1-2.2-2.758h4.4a22.318,22.318,0,0,1-2.2,2.759m14.35-13.024c-2.544-5.57-6.018-9.891-9.465-12.171l.9-1.853A1.393,1.393,0,1,0,85.409.8l-.822,1.7a5.448,5.448,0,0,0-2.439-.424,5.656,5.656,0,0,0-2.414.425L78.912.8a1.394,1.394,0,1,0-2.52,1.194l.9,1.856c-3.448,2.282-6.95,6.606-9.47,12.175-4.461,9.837-4.065,19.306.92,21.584a6.094,6.094,0,0,0,2.6.53c3.315,0,7.322-2.149,10.768-5.253,3.66,3.234,7.822,5.2,11.005,5.194a5.992,5.992,0,0,0,2.441-.477c2.545-1.167,4-4.164,4.059-8.46a32.69,32.69,0,0,0-3.127-13.127" transform="translate(-64.724 0)" fill="#ffffff"></path>
    </g>
  </g>
</svg>
